<svg width="16" height="16" viewBox="0 0 16 16" fill="none" xmlns="http://www.w3.org/2000/svg">
<path d="M11.2275 11.8108L3.92251 4.50581C3.22001 5.39081 2.80001 6.51331 2.80001 7.73331C2.80001 10.6058 5.12751 12.9333 8.00001 12.9333C9.22001 12.9333 10.3425 12.5133 11.2275 11.8108ZM12.075 10.9633C12.78 10.0758 13.2 8.95331 13.2 7.73331C13.2 4.86081 10.8725 2.53331 8.00001 2.53331C6.78001 2.53331 5.65751 2.95331 4.77251 3.65581L12.0775 10.9608L12.075 10.9633ZM1.60001 7.73331C1.60001 6.03593 2.27429 4.40806 3.47452 3.20783C4.67476 2.0076 6.30262 1.33331 8.00001 1.33331C9.69739 1.33331 11.3253 2.0076 12.5255 3.20783C13.7257 4.40806 14.4 6.03593 14.4 7.73331C14.4 9.4307 13.7257 11.0586 12.5255 12.2588C11.3253 13.459 9.69739 14.1333 8.00001 14.1333C6.30262 14.1333 4.67476 13.459 3.47452 12.2588C2.27429 11.0586 1.60001 9.4307 1.60001 7.73331Z" fill="#E53E3E"/>
</svg>
