<svg width="12" height="12" viewBox="0 0 12 12" fill="none" xmlns="http://www.w3.org/2000/svg">
<path d="M3.03058 1.25C3.27742 1.25 3.476 1.44858 3.476 1.69542V2.43778H6.1485V1.69542C6.1485 1.44858 6.34708 1.25 6.59392 1.25C6.84075 1.25 7.03933 1.44858 7.03933 1.69542V2.43778H7.7817C8.43683 2.43778 8.96947 2.97042 8.96947 3.62556V3.9225V4.81333H8.67253H8.07864H7.18781H1.54586V9.56444C1.54586 9.72776 1.67949 9.86139 1.84281 9.86139H5.93507C6.16335 10.2103 6.45473 10.5128 6.79436 10.7522H1.84281C1.18767 10.7522 0.655029 10.2196 0.655029 9.56444V4.81333V3.9225V3.62556C0.655029 2.97042 1.18767 2.43778 1.84281 2.43778H2.58517V1.69542C2.58517 1.44858 2.78375 1.25 3.03058 1.25ZM6.00003 8.07972C6.00003 7.37093 6.2816 6.69117 6.78279 6.18998C7.28398 5.68879 7.96374 5.40722 8.67253 5.40722C9.38132 5.40722 10.0611 5.68879 10.5623 6.18998C11.0635 6.69117 11.345 7.37093 11.345 8.07972C11.345 8.78851 11.0635 9.46827 10.5623 9.96946C10.0611 10.4707 9.38132 10.7522 8.67253 10.7522C7.96374 10.7522 7.28398 10.4707 6.78279 9.96946C6.2816 9.46827 6.00003 8.78851 6.00003 8.07972ZM10.1573 8.07972C10.1573 7.9164 10.0236 7.78278 9.86031 7.78278H7.48475C7.32143 7.78278 7.18781 7.9164 7.18781 8.07972C7.18781 8.24304 7.32143 8.37667 7.48475 8.37667H9.86031C10.0236 8.37667 10.1573 8.24304 10.1573 8.07972Z" fill="#822727"/>
</svg>
