<svg width="12" height="12" viewBox="0 0 12 12" fill="none" xmlns="http://www.w3.org/2000/svg">
<path d="M4.73755 2C5.10304 2 5.39945 2.29666 5.39966 2.66211V10H0.774658C0.56703 9.99979 0.399658 9.83268 0.399658 9.625C0.399658 9.41732 0.56703 9.25021 0.774658 9.25H1.39966V3.4502C1.39966 3.11123 1.62793 2.81376 1.95435 2.72461L4.56567 2.02344C4.62192 2.00781 4.67974 2 4.73755 2ZM8.39966 9.25H9.02466C9.23247 9.25 9.39966 9.41719 9.39966 9.625C9.39966 9.83281 9.23247 10 9.02466 10H8.02466C7.81703 9.99979 7.64966 9.83268 7.64966 9.625V8H8.39966V9.25ZM2.14966 3.4502V9.25H4.64966V2.77637L2.14966 3.4502ZM3.89966 5.5C4.10591 5.5 4.27466 5.725 4.27466 6C4.27466 6.275 4.10591 6.5 3.89966 6.5C3.69203 6.49971 3.52466 6.27482 3.52466 6C3.52466 5.72518 3.69359 5.50029 3.89966 5.5ZM7.52466 3C8.00747 3 8.39966 3.39219 8.39966 3.875V5H7.64966V3.875C7.64966 3.80625 7.59341 3.75 7.52466 3.75H5.89966V3H7.52466Z" fill="#333D73"/>
<path d="M9.96865 4.63219C9.7924 4.45594 9.5074 4.45594 9.33303 4.63219C9.15865 4.80844 9.15678 5.09344 9.33303 5.26781L10.0643 5.99906H6.8499C6.60053 5.99906 6.3999 6.19969 6.3999 6.44906C6.3999 6.69844 6.60053 6.89906 6.8499 6.89906H10.0643L9.33303 7.63031C9.15678 7.80656 9.15678 8.09156 9.33303 8.26594C9.50928 8.44031 9.79428 8.44219 9.96865 8.26594L11.4687 6.76594C11.6449 6.58969 11.6449 6.30469 11.4687 6.13031L9.96865 4.63031V4.63219Z" fill="#333D73"/>
</svg>
