<svg width="12" height="12" viewBox="0 0 12 12" fill="none" xmlns="http://www.w3.org/2000/svg">
<path d="M5.99995 2.1C7.0343 2.1 8.02628 2.51089 8.75767 3.24228C9.48906 3.97367 9.89995 4.96565 9.89995 6C9.89995 7.03434 9.48906 8.02632 8.75767 8.75771C8.02628 9.48911 7.0343 9.9 5.99995 9.9C4.96561 9.9 3.97363 9.48911 3.24223 8.75771C2.51084 8.02632 2.09995 7.03434 2.09995 6C2.09995 4.96565 2.51084 3.97367 3.24223 3.24228C3.97363 2.51089 4.96561 2.1 5.99995 2.1ZM5.99995 10.8C7.27299 10.8 8.49389 10.2943 9.39406 9.39411C10.2942 8.49394 10.8 7.27304 10.8 6C10.8 4.72696 10.2942 3.50606 9.39406 2.60588C8.49389 1.70571 7.27299 1.2 5.99995 1.2C4.72691 1.2 3.50601 1.70571 2.60584 2.60588C1.70566 3.50606 1.19995 4.72696 1.19995 6C1.19995 7.27304 1.70566 8.49394 2.60584 9.39411C3.50601 10.2943 4.72691 10.8 5.99995 10.8ZM8.1187 5.11875C8.29495 4.9425 8.29495 4.6575 8.1187 4.48312C7.94245 4.30875 7.65745 4.30687 7.48308 4.48312L5.40183 6.56437L4.52058 5.68312C4.34433 5.50687 4.05933 5.50687 3.88495 5.68312C3.71058 5.85937 3.7087 6.14437 3.88495 6.31875L5.08495 7.51875C5.2612 7.695 5.5462 7.695 5.72058 7.51875L8.1187 5.11875Z" fill="#22543D"/>
</svg>
