<svg width="24" height="24" viewBox="0 0 24 24" fill="none" xmlns="http://www.w3.org/2000/svg">
<path d="M12 21.6C14.5461 21.6 16.9879 20.5886 18.7882 18.7882C20.5886 16.9879 21.6 14.5461 21.6 12C21.6 9.45395 20.5886 7.01215 18.7882 5.2118C16.9879 3.41145 14.5461 2.40002 12 2.40002C9.45395 2.40002 7.01215 3.41145 5.2118 5.2118C3.41145 7.01215 2.40002 9.45395 2.40002 12C2.40002 14.5461 3.41145 16.9879 5.2118 18.7882C7.01215 20.5886 9.45395 21.6 12 21.6ZM16.2375 10.2375L11.4375 15.0375C11.085 15.39 10.515 15.39 10.1663 15.0375L7.76627 12.6375C7.41377 12.285 7.41377 11.715 7.76627 11.3663C8.11877 11.0175 8.68877 11.0138 9.03752 11.3663L10.8 13.1288L14.9625 8.96252C15.315 8.61002 15.885 8.61002 16.2338 8.96252C16.5825 9.31502 16.5863 9.88502 16.2338 10.2338L16.2375 10.2375Z" fill="#38A169"/>
</svg>
