<svg width="24" height="24" viewBox="0 0 24 24" fill="none" xmlns="http://www.w3.org/2000/svg">
<path d="M6.03125 13.9688C5.7375 14.2625 5.7375 14.7375 6.03125 15.0281L8.28125 17.2781C8.42187 17.4188 8.6125 17.4969 8.8125 17.4969H12.1906C12.3906 17.4969 12.5812 17.4188 12.7219 17.2781L14.7531 15.2469L9.75 10.25L6.03125 13.9688ZM11.9094 5.96877C12.7875 5.09065 14.2125 5.09065 15.0906 5.96877L19.0312 9.9094C19.9094 10.7875 19.9094 12.2125 19.0312 13.0906L14.6219 17.5H19.25C19.6656 17.5 20 17.8344 20 18.25C20 18.6656 19.6656 19 19.25 19H12.25C12.2312 19 12.2094 19 12.1906 19H8.8125C8.21562 19 7.64375 18.7625 7.22187 18.3406L4.97187 16.0906C4.09375 15.2125 4.09375 13.7875 4.97187 12.9094L11.9094 5.96877Z" fill="currentColor"/>
</svg>
