<svg width="24" height="24" viewBox="0 0 24 24" fill="none" xmlns="http://www.w3.org/2000/svg">
<path d="M6.60005 19.2V4.80002C6.60005 4.47002 6.87005 4.20002 7.20005 4.20002H13.2V7.20002C13.2 7.86377 13.7363 8.40002 14.4 8.40002H17.4V19.2C17.4 19.53 17.13 19.8 16.8 19.8H7.20005C6.87005 19.8 6.60005 19.53 6.60005 19.2ZM7.20005 2.40002C5.8763 2.40002 4.80005 3.47627 4.80005 4.80002V19.2C4.80005 20.5238 5.8763 21.6 7.20005 21.6H16.8C18.1238 21.6 19.2 20.5238 19.2 19.2V8.19377C19.2 7.55627 18.9488 6.94502 18.4988 6.49502L15.1013 3.10127C14.6513 2.65127 14.0438 2.40002 13.4063 2.40002H7.20005ZM12.9 11.1C12.9 10.6013 12.4988 10.2 12 10.2C11.5013 10.2 11.1 10.6013 11.1 11.1V14.9288L9.93755 13.7663C9.58505 13.4138 9.01505 13.4138 8.6663 13.7663C8.31755 14.1188 8.3138 14.6888 8.6663 15.0375L11.3663 17.7375C11.7188 18.09 12.2888 18.09 12.6375 17.7375L15.3375 15.0375C15.69 14.685 15.69 14.115 15.3375 13.7663C14.985 13.4175 14.415 13.4138 14.0663 13.7663L12.9038 14.9288L12.9 11.1Z" fill="currentColor"/>
</svg>
