<svg width="24" height="24" viewBox="0 0 24 24" fill="none" xmlns="http://www.w3.org/2000/svg">
<path d="M9.5999 7.19999C9.91816 7.19999 10.2234 7.07356 10.4484 6.84852C10.6735 6.62347 10.7999 6.31825 10.7999 5.99999C10.7999 5.68173 10.6735 5.3765 10.4484 5.15146C10.2234 4.92642 9.91816 4.79999 9.5999 4.79999C9.28164 4.79999 8.97642 4.92642 8.75137 5.15146C8.52633 5.3765 8.3999 5.68173 8.3999 5.99999C8.3999 6.31825 8.52633 6.62347 8.75137 6.84852C8.97642 7.07356 9.28164 7.19999 9.5999 7.19999ZM9.5999 13.2C9.91816 13.2 10.2234 13.0736 10.4484 12.8485C10.6735 12.6235 10.7999 12.3182 10.7999 12C10.7999 11.6817 10.6735 11.3765 10.4484 11.1515C10.2234 10.9264 9.91816 10.8 9.5999 10.8C9.28164 10.8 8.97642 10.9264 8.75137 11.1515C8.52633 11.3765 8.3999 11.6817 8.3999 12C8.3999 12.3182 8.52633 12.6235 8.75137 12.8485C8.97642 13.0736 9.28164 13.2 9.5999 13.2ZM10.7999 18C10.7999 17.6817 10.6735 17.3765 10.4484 17.1515C10.2234 16.9264 9.91816 16.8 9.5999 16.8C9.28164 16.8 8.97642 16.9264 8.75137 17.1515C8.52633 17.3765 8.3999 17.6817 8.3999 18C8.3999 18.3182 8.52633 18.6235 8.75137 18.8485C8.97642 19.0736 9.28164 19.2 9.5999 19.2C9.91816 19.2 10.2234 19.0736 10.4484 18.8485C10.6735 18.6235 10.7999 18.3182 10.7999 18ZM14.3999 7.19999C14.7182 7.19999 15.0234 7.07356 15.2484 6.84852C15.4735 6.62347 15.5999 6.31825 15.5999 5.99999C15.5999 5.68173 15.4735 5.3765 15.2484 5.15146C15.0234 4.92642 14.7182 4.79999 14.3999 4.79999C14.0816 4.79999 13.7764 4.92642 13.5514 5.15146C13.3263 5.3765 13.1999 5.68173 13.1999 5.99999C13.1999 6.31825 13.3263 6.62347 13.5514 6.84852C13.7764 7.07356 14.0816 7.19999 14.3999 7.19999ZM15.5999 12C15.5999 11.6817 15.4735 11.3765 15.2484 11.1515C15.0234 10.9264 14.7182 10.8 14.3999 10.8C14.0816 10.8 13.7764 10.9264 13.5514 11.1515C13.3263 11.3765 13.1999 11.6817 13.1999 12C13.1999 12.3182 13.3263 12.6235 13.5514 12.8485C13.7764 13.0736 14.0816 13.2 14.3999 13.2C14.7182 13.2 15.0234 13.0736 15.2484 12.8485C15.4735 12.6235 15.5999 12.3182 15.5999 12ZM14.3999 19.2C14.7182 19.2 15.0234 19.0736 15.2484 18.8485C15.4735 18.6235 15.5999 18.3182 15.5999 18C15.5999 17.6817 15.4735 17.3765 15.2484 17.1515C15.0234 16.9264 14.7182 16.8 14.3999 16.8C14.0816 16.8 13.7764 16.9264 13.5514 17.1515C13.3263 17.3765 13.1999 17.6817 13.1999 18C13.1999 18.3182 13.3263 18.6235 13.5514 18.8485C13.7764 19.0736 14.0816 19.2 14.3999 19.2Z" fill="black" fill-opacity="0.45"/>
</svg>
