<svg width="33" height="32" viewBox="0 0 33 32" fill="none" xmlns="http://www.w3.org/2000/svg">
<path d="M30.6518 16.0005C30.6518 24.0874 24.1935 30.6429 16.2261 30.6429C8.25856 30.6429 1.80029 24.0874 1.80029 16.0005C1.80029 7.91357 8.25871 1.3584 16.2261 1.3584C24.1934 1.3584 30.6518 7.91387 30.6518 16.0005Z" fill="#23418E"/>
<path d="M18.1411 8.03646C19.1989 6.97863 19.1989 5.26356 18.1411 4.20573C17.0833 3.14791 15.3682 3.14791 14.3104 4.20573C13.2526 5.26356 13.2526 6.97863 14.3104 8.03646C15.3682 9.09428 17.0833 9.09428 18.1411 8.03646Z" fill="white"/>
<path d="M16.7484 14.6515C21.0801 14.6515 24.5917 18.0528 24.5917 22.249C24.5917 22.4635 24.5765 22.6748 24.5586 22.8852C25.1457 21.668 25.4832 20.3152 25.4832 18.8825C25.4832 13.6515 21.1096 9.41113 15.7146 9.41113C10.3197 9.41113 5.94629 13.6515 5.94629 18.8825C5.94629 22.2832 7.80112 25.2566 10.5775 26.9274C9.53314 25.6368 8.90525 24.0152 8.90525 22.2489C8.90525 18.0527 12.417 14.6513 16.7484 14.6513V14.6515Z" fill="white"/>
<path d="M25.8553 25.6458C25.8553 25.6458 23.2554 21.3371 17.7584 23.2686C17.7584 23.2686 12.5778 26.3484 10.0054 26.1083C10.0054 26.1083 11.8341 29.8062 16.8762 28.1713C16.8762 28.1713 23.5527 24.7545 25.8554 25.6458H25.8553Z" fill="white"/>
</svg>
