<svg width="12" height="12" viewBox="0 0 12 12" fill="none" xmlns="http://www.w3.org/2000/svg">
<path d="M5.09995 4.5C5.09995 3.17438 6.17433 2.1 7.49995 2.1C8.82558 2.1 9.89995 3.17438 9.89995 4.5C9.89995 5.82563 8.82558 6.9 7.49995 6.9C7.30495 6.9 7.11558 6.8775 6.93558 6.8325C6.7837 6.795 6.62245 6.84 6.51183 6.9525L5.96433 7.5H4.94995C4.70058 7.5 4.49995 7.70063 4.49995 7.95V8.7H3.74995C3.50058 8.7 3.29995 8.90063 3.29995 9.15V9.9H2.09995V8.43563L5.04745 5.48813C5.15808 5.3775 5.20308 5.21625 5.16745 5.06438C5.12433 4.88438 5.09995 4.695 5.09995 4.5ZM7.49995 1.2C5.67745 1.2 4.19995 2.6775 4.19995 4.5C4.19995 4.67813 4.21308 4.8525 4.2412 5.02313L1.3312 7.93125C1.24683 8.01563 1.19995 8.13 1.19995 8.25V10.35C1.19995 10.5994 1.40058 10.8 1.64995 10.8H3.74995C3.99933 10.8 4.19995 10.5994 4.19995 10.35V9.6H4.94995C5.19933 9.6 5.39995 9.39938 5.39995 9.15V8.4H6.14995C6.26995 8.4 6.38433 8.35313 6.4687 8.26875L6.9787 7.75875C7.14933 7.785 7.3237 7.8 7.50183 7.8C9.32433 7.8 10.8018 6.3225 10.8018 4.5C10.8018 2.6775 9.32245 1.2 7.49995 1.2ZM8.09995 4.5C8.25908 4.5 8.41169 4.43679 8.52422 4.32427C8.63674 4.21175 8.69995 4.05913 8.69995 3.9C8.69995 3.74087 8.63674 3.58826 8.52422 3.47574C8.41169 3.36322 8.25908 3.3 8.09995 3.3C7.94082 3.3 7.78821 3.36322 7.67569 3.47574C7.56317 3.58826 7.49995 3.74087 7.49995 3.9C7.49995 4.05913 7.56317 4.21175 7.67569 4.32427C7.78821 4.43679 7.94082 4.5 8.09995 4.5Z" fill="#086F83"/>
</svg>
