<svg width="24" height="24" viewBox="0 0 24 24" fill="none" xmlns="http://www.w3.org/2000/svg">
<path d="M12 21.6C14.546 21.6 16.9878 20.5886 18.7882 18.7883C20.5885 16.9879 21.6 14.5461 21.6 12C21.6 9.45395 20.5885 7.01215 18.7882 5.2118C16.9878 3.41145 14.546 2.40002 12 2.40002C9.45389 2.40002 7.01209 3.41145 5.21174 5.2118C3.41139 7.01215 2.39996 9.45395 2.39996 12C2.39996 14.5461 3.41139 16.9879 5.21174 18.7883C7.01209 20.5886 9.45389 21.6 12 21.6ZM10.5 15H11.4V12.6H10.5C10.0012 12.6 9.59996 12.1988 9.59996 11.7C9.59996 11.2013 10.0012 10.8 10.5 10.8H12.3C12.7987 10.8 13.2 11.2013 13.2 11.7V15H13.5C13.9987 15 14.4 15.4013 14.4 15.9C14.4 16.3988 13.9987 16.8 13.5 16.8H10.5C10.0012 16.8 9.59996 16.3988 9.59996 15.9C9.59996 15.4013 10.0012 15 10.5 15ZM12 7.20002C12.3182 7.20002 12.6234 7.32645 12.8485 7.5515C13.0735 7.77654 13.2 8.08176 13.2 8.40002C13.2 8.71828 13.0735 9.02351 12.8485 9.24855C12.6234 9.4736 12.3182 9.60002 12 9.60002C11.6817 9.60002 11.3765 9.4736 11.1514 9.24855C10.9264 9.02351 10.8 8.71828 10.8 8.40002C10.8 8.08176 10.9264 7.77654 11.1514 7.5515C11.3765 7.32645 11.6817 7.20002 12 7.20002Z" fill="#3E4BE0"/>
</svg>
