<svg width="12" height="12" viewBox="0 0 12 12" fill="none" xmlns="http://www.w3.org/2000/svg">
<path d="M1.60634 2.07969C1.44384 1.95156 1.2079 1.98125 1.07978 2.14375C0.95165 2.30625 0.981338 2.54219 1.14384 2.67031L10.3938 9.92031C10.5563 10.0484 10.7923 10.0187 10.9204 9.85625C11.0485 9.69375 11.0188 9.45781 10.8563 9.32969L6.5204 5.93125C7.37353 5.70313 8.00009 4.925 8.00009 4C8.00009 2.89531 7.10478 2 6.00009 2C4.90946 2 4.02353 2.87188 4.00009 3.95625L1.60634 2.07969ZM5.53915 5.1625L4.9829 4.72656C4.83603 4.52187 4.75009 4.27031 4.75009 4C4.75009 3.30937 5.30946 2.75 6.00009 2.75C6.69071 2.75 7.25009 3.30937 7.25009 4C7.25009 4.69063 6.69071 5.25 6.00009 5.25C5.83759 5.25 5.68134 5.21875 5.53915 5.1625ZM5.12978 6.75469C3.66415 6.83437 2.50009 8.05 2.50009 9.53594C2.50009 9.79219 2.7079 10 2.96415 10H9.03603C9.09696 10 9.15478 9.98906 9.2079 9.96719L8.29853 9.25H3.2704C3.40946 8.26094 4.25946 7.5 5.28603 7.5H6.07665L5.12978 6.75469Z" fill="#744210"/>
</svg>
