<svg width="12" height="12" viewBox="0 0 12 12" fill="none" xmlns="http://www.w3.org/2000/svg">
<path d="M4.5 2.75C4.83152 2.75 5.14946 2.8817 5.38388 3.11612C5.6183 3.35054 5.75 3.66848 5.75 4C5.75 4.33152 5.6183 4.64946 5.38388 4.88388C5.14946 5.1183 4.83152 5.25 4.5 5.25C4.16848 5.25 3.85054 5.1183 3.61612 4.88388C3.3817 4.64946 3.25 4.33152 3.25 4C3.25 3.66848 3.3817 3.35054 3.61612 3.11612C3.85054 2.8817 4.16848 2.75 4.5 2.75ZM4.5 6C5.03043 6 5.53914 5.78929 5.91421 5.41421C6.28929 5.03914 6.5 4.53043 6.5 4C6.5 3.46957 6.28929 2.96086 5.91421 2.58579C5.53914 2.21071 5.03043 2 4.5 2C3.96957 2 3.46086 2.21071 3.08579 2.58579C2.71071 2.96086 2.5 3.46957 2.5 4C2.5 4.53043 2.71071 5.03914 3.08579 5.41421C3.46086 5.78929 3.96957 6 4.5 6ZM3.78594 7.5H5.21406C6.24063 7.5 7.09063 8.26094 7.22969 9.25H1.77031C1.90937 8.26094 2.75938 7.5 3.78594 7.5ZM3.78594 6.75C2.24688 6.75 1 7.99687 1 9.53594C1 9.79219 1.20781 10 1.46406 10H7.53594C7.79219 10 8 9.79219 8 9.53594C8 7.99687 6.75313 6.75 5.21406 6.75H3.78594Z" fill="#7B341E"/>
<path d="M9.2168 3.86914C9.36463 3.76602 9.57034 3.77716 9.70605 3.90723L11.0801 5.21973L11.082 5.22168C11.1559 5.29396 11.2002 5.39382 11.2002 5.50098C11.2001 5.60673 11.1562 5.70832 11.0801 5.78125L10.9395 5.91602L10.9375 5.91406L9.7041 7.09277V7.09375C9.55017 7.23957 9.30444 7.23624 9.15625 7.08008C9.01001 6.9258 9.01454 6.68166 9.16895 6.5332L9.16992 6.53223L9.84473 5.8877H7.6875C7.50003 5.8877 7.3438 5.7557 7.30762 5.5791L7.2998 5.50098L7.30762 5.42188C7.34384 5.24533 7.50007 5.11328 7.6875 5.11328H9.8457L9.1709 4.46777C9.01489 4.31957 9.01146 4.07479 9.15723 3.9209L9.2168 3.86914Z" fill="#7B341E" stroke="#7B341E" stroke-width="0.4"/>
</svg>
