<svg width="12" height="12" viewBox="0 0 12 12" fill="none" xmlns="http://www.w3.org/2000/svg">
<path d="M4.5 5.25C4.83152 5.25 5.14946 5.1183 5.38388 4.88388C5.6183 4.64946 5.75 4.33152 5.75 4C5.75 3.66848 5.6183 3.35054 5.38388 3.11612C5.14946 2.8817 4.83152 2.75 4.5 2.75C4.16848 2.75 3.85054 2.8817 3.61612 3.11612C3.3817 3.35054 3.25 3.66848 3.25 4C3.25 4.33152 3.3817 4.64946 3.61612 4.88388C3.85054 5.1183 4.16848 5.25 4.5 5.25ZM4.5 2C5.03043 2 5.53914 2.21071 5.91421 2.58579C6.28929 2.96086 6.5 3.46957 6.5 4C6.5 4.53043 6.28929 5.03914 5.91421 5.41421C5.53914 5.78929 5.03043 6 4.5 6C3.96957 6 3.46086 5.78929 3.08579 5.41421C2.71071 5.03914 2.5 4.53043 2.5 4C2.5 3.46957 2.71071 2.96086 3.08579 2.58579C3.46086 2.21071 3.96957 2 4.5 2ZM1.77031 9.25H6.44531C6.6375 9.54375 6.88281 9.79844 7.16875 10H1.46406C1.20781 10 1 9.79219 1 9.53594C1 7.99687 2.24688 6.75 3.78594 6.75H4.5H5.21406C5.53594 6.75 5.84531 6.80469 6.13281 6.90469C6.05625 7.14375 6.01094 7.39531 6.00156 7.65781C5.75938 7.55625 5.49375 7.5 5.21406 7.5H3.78594C2.75938 7.5 1.90937 8.26094 1.77031 9.25ZM6.5 7.75C6.5 7.15326 6.73705 6.58097 7.15901 6.15901C7.58097 5.73705 8.15326 5.5 8.75 5.5C9.34674 5.5 9.91903 5.73705 10.341 6.15901C10.7629 6.58097 11 7.15326 11 7.75C11 8.34674 10.7629 8.91903 10.341 9.34099C9.91903 9.76295 9.34674 10 8.75 10C8.15326 10 7.58097 9.76295 7.15901 9.34099C6.73705 8.91903 6.5 8.34674 6.5 7.75ZM8.75 6.5C8.6125 6.5 8.5 6.6125 8.5 6.75V7.75C8.5 7.8875 8.6125 8 8.75 8H9.5C9.6375 8 9.75 7.8875 9.75 7.75C9.75 7.6125 9.6375 7.5 9.5 7.5H9V6.75C9 6.6125 8.8875 6.5 8.75 6.5Z" fill="black" fill-opacity="0.88"/>
</svg>
